<?xml version="1.0" encoding="utf-8"?>
<!-- Generator: Adobe Illustrator 21.0.2, SVG Export Plug-In . SVG Version: 6.00 Build 0)  -->
<svg version="1.1" id="Layer_1" xmlns="http://www.w3.org/2000/svg" xmlns:xlink="http://www.w3.org/1999/xlink" x="0px" y="0px"
	 viewBox="0 0 706.9 382.5" style="enable-background:new 0 0 706.9 382.5;" xml:space="preserve">
<style type="text/css">
	.st0{fill:#4F4F51;}
	.st1{fill:#ABE1FA;}
	.st2{fill:#00BDF2;}
	.st3{fill:#1B75BC;}
	.st4{opacity:0.74;fill:url(#SVGID_1_);}
	.st5{opacity:0.74;fill:url(#SVGID_2_);}
</style>
<g>
	<g>
		<path class="st0" d="M17.6,310.6V9.5h138.7v54.1H77.6v68.1h67.7v54.1H77.6v70.6h78.7v54.1H17.6z"/>
	</g>
	<g>
		<path class="st0" d="M604,311c-33.8,0-51.6-13.3-65.6-29.4C514.3,253.4,516,200,516,160.2c0-39.8-1.7-93.2,22.4-121.4
			c14-16.2,31.7-29.4,65.6-29.4c25.4,0,45.3,8.3,59.6,22c16.1,15.7,24.5,38.9,25.8,65.9h-60.1c-0.4-12.4-2.5-34.8-25.4-34.8
			c-11,0-16.5,5-19.9,11.6c-7.2,13.7-8,50.5-8,86.2s0.8,72.5,8,86.2C587.5,253,593,258,604,258c19.9,0,25.4-18.2,25.4-34.4v-30.6
			h-25v-47.6h85v75C689.4,279.1,655.5,311,604,311z"/>
	</g>
	<polygon class="st1" points="170.2,9.4 258,9.4 286.2,82 243.1,199.4 	"/>
	<polygon class="st2" points="445.2,9.5 527.5,9.5 486.4,122.3 	"/>
	<polygon class="st3" points="460.1,194.7 417.9,310.4 352.2,124.2 393.4,9.4 	"/>
	<polygon class="st2" points="312.2,9.5 393.4,9.4 285.3,310.4 243.1,199.4 	"/>
	<g>
		<g>
			<path class="st0" d="M355.6,358.2v1c0,6.6-4.7,11.7-11.4,11.7c-6.7,0-12.2-5.8-12.2-12.5c0-6.9,5.6-12.6,12.5-12.6
				c3.7,0,7.4,1.7,9.8,4.7l-2.1,2c-1.7-2.4-4.6-3.9-7.6-3.9c-5.4,0-9.6,4.4-9.6,9.8c0,5,4.1,9.8,9.4,9.8c3.7,0,7.8-3.2,7.9-7.1h-6.2
				v-2.7H355.6z"/>
			<path class="st0" d="M374.3,370.3h-3.6l-7.1-10.2h-1.2v10.2h-3v-24.1h3.6c2.1,0,4.4,0,6.4,1.1c2,1.2,3.2,3.4,3.2,5.7
				c0,3.4-2.3,6.3-5.8,6.7L374.3,370.3z M362.4,357.6h1c3.1,0,6.4-0.6,6.4-4.4c0-3.8-3.6-4.3-6.5-4.3h-0.8V357.6z"/>
			<path class="st0" d="M401,358.3c0,7.1-5.6,12.5-12.6,12.5c-7,0-12.6-5.4-12.6-12.5c0-6.9,5.7-12.5,12.6-12.5
				C395.3,345.7,401,351.4,401,358.3z M398,358.3c0-5.3-4-9.7-9.6-9.7c-5.6,0-9.6,4.4-9.6,9.7c0,5.5,4.4,9.7,9.6,9.7
				C393.6,368,398,363.8,398,358.3z"/>
			<path class="st0" d="M407.3,346.3v14.2c0,3.9,1.2,7.6,5.8,7.6s5.8-3.6,5.8-7.6v-14.2h3v15.2c0,5.3-3.3,9.4-8.8,9.4
				c-5.5,0-8.8-4.1-8.8-9.4v-15.2H407.3z"/>
			<path class="st0" d="M429.9,370.3h-3v-24.1h3.4c7.4,0,9.7,2.6,9.7,7c0,5.1-3.9,7-8.4,7h-1.7V370.3z M429.9,357.6h1
				c3.1,0,6.4-0.6,6.4-4.4c0-3.8-3.6-4.2-6.5-4.2h-0.8V357.6z"/>
		</g>
		<g>
			<path class="st0" d="M17.6,346.3h12.9v2.7h-9.9v6.7h9.6v2.7h-9.6v9.1h9.9v2.7H17.6V346.3z"/>
			<path class="st0" d="M42.9,364.1l7.1-17.8h3.3l-10.4,25.3l-10.4-25.3h3.3L42.9,364.1z"/>
			<path class="st0" d="M56.1,346.3H69v2.7h-9.9v6.7h9.6v2.7h-9.6v9.1H69v2.7H56.1V346.3z"/>
			<path class="st0" d="M73.3,345.2l18,18.9v-17.7h3v25l-18-18.9v17.9h-3V345.2z"/>
			<path class="st0" d="M105.8,370.3h-3v-21.3h-5.7v-2.7h14.4v2.7h-5.7V370.3z"/>
			<path class="st0" d="M132,363.5l6.8-17.7l6.8,17.7l6.7-17.2h3.2l-10,25l-6.8-17.6l-6.8,17.6l-10-25h3.2L132,363.5z"/>
			<path class="st0" d="M181.6,358.3c0,7.1-5.6,12.5-12.6,12.5c-6.9,0-12.6-5.4-12.6-12.5c0-6.9,5.7-12.5,12.6-12.5
				C176,345.8,181.6,351.4,181.6,358.3z M178.7,358.3c0-5.3-3.9-9.7-9.6-9.7c-5.6,0-9.6,4.4-9.6,9.7c0,5.5,4.4,9.7,9.6,9.7
				C174.3,368,178.7,363.8,178.7,358.3z"/>
			<path class="st0" d="M200.3,370.3h-3.6l-7.1-10.2h-1.2v10.2h-3v-24h3.6c2.1,0,4.4,0,6.3,1.1c2,1.2,3.2,3.4,3.2,5.7
				c0,3.4-2.3,6.3-5.8,6.7L200.3,370.3z M188.4,357.7h1c3.1,0,6.4-0.6,6.4-4.4c0-3.8-3.6-4.3-6.5-4.3h-0.8V357.7z"/>
			<path class="st0" d="M216.6,346.3h3.9l-10.8,10.8l11,13.2h-4l-9-11.2l-1.2,1.1v10h-3v-24h3v10.4L216.6,346.3z"/>
			<path class="st0" d="M226.3,349.1v6.7h8.3v2.7h-8.3v11.8h-3v-24H235v2.7H226.3z"/>
			<path class="st0" d="M262.7,358.3c0,7.1-5.6,12.5-12.6,12.5c-6.9,0-12.6-5.4-12.6-12.5c0-6.9,5.7-12.5,12.6-12.5
				C257,345.8,262.7,351.4,262.7,358.3z M259.7,358.3c0-5.3-3.9-9.7-9.6-9.7c-5.6,0-9.6,4.4-9.6,9.7c0,5.5,4.4,9.7,9.6,9.7
				C255.3,368,259.7,363.8,259.7,358.3z"/>
			<path class="st0" d="M281.4,370.3h-3.6l-7.1-10.2h-1.2v10.2h-3v-24h3.6c2.1,0,4.4,0,6.3,1.1c2,1.2,3.2,3.4,3.2,5.7
				c0,3.4-2.3,6.3-5.8,6.7L281.4,370.3z M269.4,357.7h1c3.1,0,6.4-0.6,6.4-4.4c0-3.8-3.6-4.3-6.5-4.3h-0.8V357.7z"/>
			<path class="st0" d="M302,350.9c-1.7-1.5-4.1-2.4-6.3-2.4c-5.4,0-9.5,4.5-9.5,9.8c0,5.3,4.1,9.7,9.4,9.7c2.4,0,4.6-0.9,6.4-2.5
				v3.5c-1.8,1.1-4.2,1.7-6.3,1.7c-6.8,0-12.5-5.4-12.5-12.4c0-7.1,5.7-12.6,12.8-12.6c2.1,0,4.2,0.5,6,1.6V350.9z"/>
			<path class="st0" d="M306.4,346.3h12.9v2.7h-9.9v6.7h9.6v2.7h-9.6v9.1h9.9v2.7h-12.9V346.3z"/>
		</g>
		<g>
			<path class="st2" d="M462.8,370.3h-6.2v-18.7h-5.1v-5.3H468v5.3h-5.1V370.3z"/>
			<path class="st2" d="M477.3,351.7v4h7v5.3h-7v4.1h7.4v5.3H471v-24h13.6v5.3H477.3z"/>
			<path class="st2" d="M506.4,354.4c-1.3-1.7-3.3-2.6-5.5-2.6c-3.8,0-6.4,2.9-6.4,6.6c0,3.8,2.6,6.5,6.5,6.5c2,0,4.1-1,5.4-2.5v7.5
				c-2.1,0.6-3.6,1.1-5.5,1.1c-3.3,0-6.5-1.3-9-3.5c-2.6-2.4-3.8-5.5-3.8-9.1c0-3.3,1.2-6.4,3.5-8.8c2.4-2.4,5.8-3.9,9.1-3.9
				c2,0,3.8,0.4,5.7,1.2V354.4z"/>
			<path class="st2" d="M526.3,355.6v-9.2h6.2v24h-6.2v-9.8h-9v9.8h-6.2v-24h6.2v9.2H526.3z"/>
			<path class="st2" d="M537.3,346.4h6.2L555,361h0.1v-14.6h6.2v24h-6.2l-11.4-14.7h-0.1v14.7h-6.2V346.4z"/>
			<path class="st2" d="M591.4,357.9c0,7.8-5.6,13.2-13.3,13.2s-13.3-5.5-13.3-13.2c0-7.2,6.4-12.3,13.3-12.3
				S591.4,350.7,591.4,357.9z M571.4,357.9c0,4.1,3.1,7.1,6.8,7.1s6.8-3,6.8-7.1c0-3.3-3.1-6.3-6.8-6.3S571.4,354.6,571.4,357.9z"/>
			<path class="st2" d="M601.3,365.1h7.5v5.3h-13.7v-24h6.2V365.1z"/>
			<path class="st2" d="M636.9,357.9c0,7.8-5.6,13.2-13.3,13.2c-7.7,0-13.2-5.5-13.2-13.2c0-7.2,6.4-12.3,13.2-12.3
				C630.6,345.6,636.9,350.7,636.9,357.9z M616.9,357.9c0,4.1,3.1,7.1,6.8,7.1c3.7,0,6.8-3,6.8-7.1c0-3.3-3.1-6.3-6.8-6.3
				C619.9,351.6,616.9,354.6,616.9,357.9z"/>
			<path class="st2" d="M664.5,357c-0.1,3.5-0.3,6.5-2.4,9.5c-2.4,3.3-5.9,4.7-9.9,4.7c-7.5,0-12.8-5.1-12.8-12.6
				c0-7.8,5.3-12.9,13-12.9c4.9,0,8.7,2.2,10.8,6.7l-5.9,2.5c-0.9-2.3-2.7-3.8-5.2-3.8c-4.1,0-6.2,3.9-6.2,7.6
				c0,3.7,2.2,7.5,6.3,7.5c2.7,0,4.8-1.4,5-4.2h-5.1V357H664.5z"/>
			<path class="st2" d="M665.5,346.4h7.5l4.5,6.5l4.5-6.5h7.5l-8.8,12.5v11.5h-6.2v-11.5L665.5,346.4z"/>
		</g>
	</g>
	<linearGradient id="SVGID_1_" gradientUnits="userSpaceOnUse" x1="214.2538" y1="45.8879" x2="281.2504" y2="153.9276">
		<stop  offset="0" style="stop-color:#ABE1FA;stop-opacity:0"/>
		<stop  offset="1" style="stop-color:#000000;stop-opacity:0.3"/>
	</linearGradient>
	<polygon class="st4" points="170.2,9.4 258.1,9.5 286,81.4 243.1,199.4 	"/>
	<linearGradient id="SVGID_2_" gradientUnits="userSpaceOnUse" x1="422.4904" y1="190.6875" x2="370.1048" y2="94.7703">
		<stop  offset="0" style="stop-color:#1B75BC;stop-opacity:0"/>
		<stop  offset="1" style="stop-color:#000000;stop-opacity:0.3"/>
	</linearGradient>
	<polygon class="st5" points="460.1,194.7 417.9,310.4 352.2,124.2 393.4,9.4 	"/>
</g>
</svg>
