<?xml version="1.0" encoding="utf-8"?>
<!-- Generator: Adobe Illustrator 21.0.2, SVG Export Plug-In . SVG Version: 6.00 Build 0)  -->
<svg version="1.1" id="Layer_1" xmlns="http://www.w3.org/2000/svg" xmlns:xlink="http://www.w3.org/1999/xlink" x="0px" y="0px"
	 viewBox="0 0 841.9 595.3" style="enable-background:new 0 0 841.9 595.3;" xml:space="preserve">
<style type="text/css">
	.st0{clip-path:url(#SVGID_2_);}
	.st1{clip-path:url(#SVGID_4_);fill:#4F4F51;}
	.st2{clip-path:url(#SVGID_4_);}
	.st3{clip-path:url(#SVGID_6_);fill:#4F4F51;}
	.st4{clip-path:url(#SVGID_6_);fill:#ABE1FA;}
	.st5{clip-path:url(#SVGID_6_);fill:#00BDF2;}
	.st6{clip-path:url(#SVGID_6_);fill:#1B75BC;}
	.st7{opacity:0.74;clip-path:url(#SVGID_6_);}
	.st8{clip-path:url(#SVGID_8_);}
	.st9{filter:url(#Adobe_OpacityMaskFilter);}
	.st10{clip-path:url(#SVGID_10_);fill:url(#SVGID_12_);}
	.st11{clip-path:url(#SVGID_10_);mask:url(#SVGID_11_);fill:url(#SVGID_13_);}
	.st12{clip-path:url(#SVGID_15_);}
	.st13{filter:url(#Adobe_OpacityMaskFilter_1_);}
	.st14{clip-path:url(#SVGID_17_);fill:url(#SVGID_19_);}
	.st15{clip-path:url(#SVGID_17_);mask:url(#SVGID_18_);fill:url(#SVGID_20_);}
</style>
<g id="Artwork_4">
	<g>
		<defs>
			<rect id="SVGID_1_" x="54.8" y="125.9" width="671.8" height="301.5"/>
		</defs>
		<clipPath id="SVGID_2_">
			<use xlink:href="#SVGID_1_"  style="overflow:visible;"/>
		</clipPath>
		<g class="st0">
			<defs>
				<rect id="SVGID_3_" x="54.8" y="125.9" width="671.8" height="301.5"/>
			</defs>
			<clipPath id="SVGID_4_">
				<use xlink:href="#SVGID_3_"  style="overflow:visible;"/>
			</clipPath>
			<polygon class="st1" points="54.8,125.9 54.8,427 193.5,427 193.5,372.9 114.8,372.9 114.8,302.3 182.5,302.3 182.5,248.1 
				114.8,248.1 114.8,180.1 193.5,180.1 193.5,125.9 			"/>
			<g class="st2">
				<defs>
					<rect id="SVGID_5_" x="54.8" y="125.9" width="671.8" height="301.5"/>
				</defs>
				<clipPath id="SVGID_6_">
					<use xlink:href="#SVGID_5_"  style="overflow:visible;"/>
				</clipPath>
				<path class="st3" d="M641.2,427.4c-33.8,0-51.6-13.3-65.6-29.4c-24.1-28.2-22.4-81.6-22.4-121.4c0-39.8-1.7-93.2,22.4-121.4
					c14-16.2,31.7-29.4,65.6-29.4c25.4,0,45.3,8.3,59.6,22c16.1,15.7,24.5,38.9,25.8,65.9h-60.1c-0.4-12.4-2.5-34.8-25.4-34.8
					c-11,0-16.5,5-19.9,11.6c-7.2,13.7-8,50.5-8,86.2c0,35.6,0.8,72.5,8,86.2c3.4,6.6,8.9,11.6,19.9,11.6
					c19.9,0,25.4-18.2,25.4-34.4v-30.6h-25v-47.6h85v75C726.6,395.5,692.8,427.4,641.2,427.4"/>
				<polygon class="st4" points="207.4,125.9 295.2,125.9 323.5,198.4 280.3,315.8 				"/>
				<polygon class="st5" points="482.5,125.9 564.7,125.9 523.6,238.7 				"/>
				<polygon class="st6" points="497.3,311.1 455.2,426.8 389.4,240.6 430.6,125.9 				"/>
				<polygon class="st5" points="349.5,125.9 430.6,125.9 322.6,426.8 280.3,315.8 				"/>
				<g class="st7">
					<g>
						<defs>
							<rect id="SVGID_7_" x="207.4" y="125.9" width="115.9" height="190"/>
						</defs>
						<clipPath id="SVGID_8_">
							<use xlink:href="#SVGID_7_"  style="overflow:visible;"/>
						</clipPath>
						<g class="st8">
							<defs>
								<polygon id="SVGID_9_" points="207.4,125.9 295.3,125.9 323.3,197.8 280.3,315.8 								"/>
							</defs>
							<clipPath id="SVGID_10_">
								<use xlink:href="#SVGID_9_"  style="overflow:visible;"/>
							</clipPath>
							<defs>
								<filter id="Adobe_OpacityMaskFilter" filterUnits="userSpaceOnUse" x="122.3" y="74" width="286.1" height="293.8">
									<feColorMatrix  type="matrix" values="1 0 0 0 0  0 1 0 0 0  0 0 1 0 0  0 0 0 1 0"/>
								</filter>
							</defs>
							<mask maskUnits="userSpaceOnUse" x="122.3" y="74" width="286.1" height="293.8" id="SVGID_11_">
								<g class="st9">
									
										<linearGradient id="SVGID_12_" gradientUnits="userSpaceOnUse" x1="-0.8953" y1="596.2122" x2="0.1047" y2="596.2122" gradientTransform="matrix(66.9967 108.0397 108.0397 -66.9967 -64119.3281 40213.3281)">
										<stop  offset="0" style="stop-color:#000000"/>
										<stop  offset="1" style="stop-color:#4D4D4D"/>
									</linearGradient>
									<polygon class="st10" points="291.1,74 408.3,263.1 239.6,367.7 122.3,178.6 									"/>
								</g>
							</mask>
							
								<linearGradient id="SVGID_13_" gradientUnits="userSpaceOnUse" x1="-0.8953" y1="596.2122" x2="0.1047" y2="596.2122" gradientTransform="matrix(66.9967 108.0397 108.0397 -66.9967 -64119.3281 40213.3281)">
								<stop  offset="0" style="stop-color:#ABE1FA"/>
								<stop  offset="1" style="stop-color:#231F20"/>
							</linearGradient>
							<polygon class="st11" points="291.1,74 408.3,263.1 239.6,367.7 122.3,178.6 							"/>
						</g>
					</g>
				</g>
				<g class="st7">
					<g>
						<defs>
							<rect id="SVGID_14_" x="389.4" y="125.9" width="107.9" height="301"/>
						</defs>
						<clipPath id="SVGID_15_">
							<use xlink:href="#SVGID_14_"  style="overflow:visible;"/>
						</clipPath>
						<g class="st12">
							<defs>
								<polygon id="SVGID_16_" points="497.3,311.1 455.2,426.8 389.4,240.6 430.6,125.9 								"/>
							</defs>
							<clipPath id="SVGID_17_">
								<use xlink:href="#SVGID_16_"  style="overflow:visible;"/>
							</clipPath>
							<defs>
								<filter id="Adobe_OpacityMaskFilter_1_" filterUnits="userSpaceOnUse" x="262.8" y="80.5" width="361.1" height="391.7">
									<feColorMatrix  type="matrix" values="1 0 0 0 0  0 1 0 0 0  0 0 1 0 0  0 0 0 1 0"/>
								</filter>
							</defs>
							<mask maskUnits="userSpaceOnUse" x="262.8" y="80.5" width="361.1" height="391.7" id="SVGID_18_">
								<g class="st13">
									
										<linearGradient id="SVGID_19_" gradientUnits="userSpaceOnUse" x1="1.108" y1="594.1201" x2="2.108" y2="594.1201" gradientTransform="matrix(-52.3855 -95.9172 -95.9172 52.3855 57504.418 -30710.0898)">
										<stop  offset="0" style="stop-color:#000000"/>
										<stop  offset="1" style="stop-color:#4D4D4D"/>
									</linearGradient>
									<polygon class="st14" points="414.2,472.2 262.8,195 472.5,80.5 623.9,357.7 									"/>
								</g>
							</mask>
							
								<linearGradient id="SVGID_20_" gradientUnits="userSpaceOnUse" x1="1.108" y1="594.1201" x2="2.108" y2="594.1201" gradientTransform="matrix(-52.3855 -95.9172 -95.9172 52.3855 57504.418 -30710.0918)">
								<stop  offset="0" style="stop-color:#1B75BC"/>
								<stop  offset="1" style="stop-color:#231F20"/>
							</linearGradient>
							<polygon class="st15" points="414.2,472.2 262.8,195 472.5,80.5 623.9,357.7 							"/>
						</g>
					</g>
				</g>
			</g>
		</g>
	</g>
</g>
</svg>
