<?xml version="1.0" encoding="utf-8"?>
<!-- Generator: Adobe Illustrator 21.0.2, SVG Export Plug-In . SVG Version: 6.00 Build 0)  -->
<svg version="1.1" id="Layer_1" xmlns="http://www.w3.org/2000/svg" xmlns:xlink="http://www.w3.org/1999/xlink" x="0px" y="0px"
	 viewBox="0 0 841.9 595.3" style="enable-background:new 0 0 841.9 595.3;" xml:space="preserve">
<style type="text/css">
	.st0{fill:#4F4F51;}
	.st1{fill:#FBB040;}
	.st2{fill:#00BDF2;}
	.st3{fill:#B2D235;}
	.st4{opacity:0.74;fill:url(#SVGID_1_);}
	.st5{opacity:0.74;fill:url(#SVGID_2_);}
</style>
<g>
	<g>
		<g>
			<path class="st0" d="M85,437.8h19.4v4.1H89.6v10.1H104v4.1H89.6v13.7h14.9v4.1H85V437.8z"/>
			<path class="st0" d="M123.2,464.6l10.8-26.8h4.9l-15.7,38.1l-15.7-38.1h4.9L123.2,464.6z"/>
			<path class="st0" d="M143.2,437.8h19.4v4.1h-14.9v10.1h14.5v4.1h-14.5v13.7h14.9v4.1h-19.4V437.8z"/>
			<path class="st0" d="M169,436.1l27.2,28.5v-26.7h4.5v37.7L173.5,447v27H169V436.1z"/>
			<path class="st0" d="M218,474h-4.5v-32.1h-8.6v-4.1h21.7v4.1H218V474z"/>
			<path class="st0" d="M258.3,461.2L258.3,461.2l7.7-23.4h7.5l7.1,23.4h0.1l6.8-23.4h9.8L285.8,474h-9.6l-6.3-21h-0.1l-7.1,21h-9.6
				l-10.8-36.2h9.8L258.3,461.2z"/>
			<path class="st0" d="M339.1,455.2c0,11.7-8.4,20-20,20c-11.6,0-20-8.3-20-20c0-10.9,9.6-18.6,20-18.6
				C329.5,436.6,339.1,444.3,339.1,455.2z M308.8,455.3c0,6.2,4.6,10.8,10.2,10.8c5.6,0,10.2-4.6,10.2-10.8c0-5-4.6-9.6-10.2-9.6
				C313.5,445.7,308.8,450.3,308.8,455.3z"/>
			<path class="st0" d="M374.8,474H363l-8.9-13.9h-0.1V474h-9.4v-36.2h14.1c7.2,0,12.6,3.4,12.6,11.1c0,5-2.8,9.3-7.9,10.2
				L374.8,474z M354.1,454h0.9c3.1,0,6.5-0.6,6.5-4.5s-3.5-4.5-6.5-4.5h-0.9V454z"/>
			<path class="st0" d="M399.4,437.8h11.7L396.7,455l15.7,19.1h-12.2L388,458.3h-0.1V474h-9.4v-36.2h9.4v14.9h0.1L399.4,437.8z"/>
			<path class="st0" d="M425.5,445.8v6h10.3v8h-10.3V474h-9.4v-36.2h20.8v8H425.5z"/>
			<path class="st0" d="M481.5,455.2c0,11.7-8.4,20-20,20c-11.6,0-20-8.3-20-20c0-10.9,9.6-18.6,20-18.6
				C471.9,436.6,481.5,444.3,481.5,455.2z M451.3,455.3c0,6.2,4.6,10.8,10.2,10.8s10.2-4.6,10.2-10.8c0-5-4.6-9.6-10.2-9.6
				S451.3,450.3,451.3,455.3z"/>
			<path class="st0" d="M517.2,474h-11.7l-8.9-13.9h-0.1V474h-9.4v-36.2h14.1c7.2,0,12.6,3.4,12.6,11.1c0,5-2.8,9.3-7.9,10.2
				L517.2,474z M496.5,454h0.9c3.1,0,6.5-0.6,6.5-4.5s-3.5-4.5-6.5-4.5h-0.9V454z"/>
			<path class="st0" d="M546.8,450c-1.9-2.6-5-4-8.3-4c-5.8,0-9.6,4.4-9.6,10c0,5.7,3.9,9.8,9.8,9.8c3.1,0,6.1-1.5,8.1-3.8v11.3
				c-3.1,1-5.4,1.7-8.3,1.7c-5,0-9.8-1.9-13.6-5.3c-4-3.6-5.8-8.3-5.8-13.7c0-4.9,1.9-9.7,5.3-13.2c3.6-3.6,8.7-5.9,13.8-5.9
				c3,0,5.8,0.7,8.6,1.8V450z"/>
			<path class="st0" d="M563.2,445.8v6h10.6v8h-10.6v6.2h11.2v8h-20.6v-36.2h20.6v8H563.2z"/>
			<path class="st0" d="M629.9,455.8v1.4c0,9.9-7,17.6-17.1,17.6c-10.1,0-18.3-8.7-18.3-18.8c0-10.4,8.4-19,18.8-19
				c5.6,0,11.2,2.5,14.7,7l-3.2,3c-2.6-3.6-7-5.9-11.4-5.9c-8.1,0-14.4,6.6-14.4,14.7c0,7.6,6.2,14.8,14.1,14.8
				c5.6,0,11.7-4.8,11.9-10.8h-9.4v-4.1H629.9z"/>
			<path class="st0" d="M658.1,474h-5.5l-10.7-15.3h-1.9V474h-4.5v-36.2h5.5c3.2,0,6.7,0,9.6,1.7c3,1.8,4.8,5.2,4.8,8.6
				c0,5.2-3.5,9.5-8.7,10.1L658.1,474z M640.1,455h1.4c4.6,0,9.6-0.9,9.6-6.6c0-5.7-5.4-6.5-9.8-6.5h-1.2V455z"/>
			<path class="st0" d="M698.2,455.9c0,10.8-8.5,18.9-19,18.9c-10.5,0-19-8.1-19-18.9c0-10.4,8.6-18.9,19-18.9
				C689.6,437,698.2,445.5,698.2,455.9z M693.7,455.9c0-8-6-14.6-14.4-14.6c-8.5,0-14.4,6.7-14.4,14.6c0,8.3,6.6,14.6,14.4,14.6
				C687,470.6,693.7,464.2,693.7,455.9z"/>
			<path class="st0" d="M707.6,437.8v21.4c0,5.9,1.8,11.4,8.7,11.4s8.7-5.5,8.7-11.4v-21.4h4.5v22.9c0,8-4.9,14.1-13.2,14.1
				c-8.3,0-13.2-6.1-13.2-14.1v-22.9H707.6z"/>
			<path class="st0" d="M741.6,474h-4.5v-36.2h5.2c11.1,0,14.6,3.8,14.6,10.5c0,7.6-5.8,10.6-12.7,10.6h-2.6V474z M741.6,454.8h1.4
				c4.6,0,9.6-0.9,9.6-6.6c0-5.7-5.4-6.3-9.8-6.3h-1.2V454.8z"/>
		</g>
	</g>
	<polygon class="st1" points="237.6,106.4 325.5,106.4 353.7,179 310.5,296.4 	"/>
	<polygon class="st0" points="512.7,106.5 594.9,106.5 553.9,219.3 	"/>
	<polygon class="st2" points="527.5,291.7 485.4,407.4 419.7,221.2 460.9,106.4 	"/>
	<polygon class="st3" points="379.7,106.4 460.9,106.4 352.8,407.4 310.5,296.4 	"/>
	<g>
		<path class="st0" d="M85,407.6V106.5h138.7v54.1h-78.7v68.1h67.7v54.1h-67.7v70.6h78.7v54.1H85z"/>
	</g>
	<g>
		<path class="st0" d="M671.4,407.9c-33.8,0-51.6-13.3-65.6-29.4c-24.1-28.2-22.4-81.6-22.4-121.4c0-39.8-1.7-93.2,22.4-121.4
			c14-16.2,31.7-29.4,65.6-29.4c25.4,0,45.3,8.3,59.6,22c16.1,15.7,24.5,38.9,25.8,65.9h-60.1c-0.4-12.4-2.5-34.8-25.4-34.8
			c-11,0-16.5,5-19.9,11.6c-7.2,13.7-8,50.5-8,86.2s0.8,72.5,8,86.2c3.4,6.6,8.9,11.6,19.9,11.6c19.9,0,25.4-18.2,25.4-34.4v-30.6
			h-25v-47.6h85v75C756.9,376,723,407.9,671.4,407.9z"/>
	</g>
	<linearGradient id="SVGID_1_" gradientUnits="userSpaceOnUse" x1="281.7259" y1="142.8591" x2="348.7225" y2="250.8988">
		<stop  offset="0" style="stop-color:#FBB040;stop-opacity:0"/>
		<stop  offset="1" style="stop-color:#000000;stop-opacity:0.3"/>
	</linearGradient>
	<polygon class="st4" points="237.6,106.4 325.5,106.5 353.5,178.4 310.5,296.4 	"/>
	<linearGradient id="SVGID_2_" gradientUnits="userSpaceOnUse" x1="489.9625" y1="287.6587" x2="437.5769" y2="191.7415">
		<stop  offset="0" style="stop-color:#00C2F3;stop-opacity:0"/>
		<stop  offset="1" style="stop-color:#000000;stop-opacity:0.3"/>
	</linearGradient>
	<polygon class="st5" points="527.5,291.7 485.4,407.4 419.7,221.2 460.9,106.4 	"/>
</g>
</svg>
