<?xml version="1.0" encoding="utf-8"?>
<!-- Generator: Adobe Illustrator 21.0.2, SVG Export Plug-In . SVG Version: 6.00 Build 0)  -->
<svg version="1.1" id="Layer_1" xmlns="http://www.w3.org/2000/svg" xmlns:xlink="http://www.w3.org/1999/xlink" x="0px" y="0px"
	 viewBox="0 0 75 40" style="enable-background:new 0 0 75 40;" xml:space="preserve">
<style type="text/css">
	.st0{clip-path:url(#SVGID_2_);}
	.st1{clip-path:url(#SVGID_5_);}
	.st2{clip-path:url(#SVGID_6_);fill:#4F4F51;}
	.st3{clip-path:url(#SVGID_6_);}
	.st4{clip-path:url(#SVGID_13_);}
	.st5{clip-path:url(#SVGID_14_);}
	.st6{clip-path:url(#SVGID_15_);}
	.st7{clip-path:url(#SVGID_16_);}
	.st8{clip-path:url(#SVGID_17_);}
	.st9{clip-path:url(#SVGID_18_);fill:#4F4F51;}
	.st10{clip-path:url(#SVGID_18_);fill:#ABE1FA;}
	.st11{clip-path:url(#SVGID_18_);fill:#00BDF2;}
	.st12{clip-path:url(#SVGID_18_);fill:#1B75BC;}
	.st13{clip-path:url(#SVGID_18_);}
</style>
<g>
	<g>
		<g>
			<defs>
				<rect id="SVGID_1_" x="2" y="4.1" width="71" height="31.9"/>
			</defs>
			<clipPath id="SVGID_2_">
				<use xlink:href="#SVGID_1_"  style="overflow:visible;"/>
			</clipPath>
			<g class="st0">
				<g>
					<defs>
						<rect id="SVGID_3_" x="2" y="4.1" width="71" height="31.9"/>
					</defs>
					<defs>
						<rect id="SVGID_4_" x="2" y="4.1" width="71" height="31.9"/>
					</defs>
					<clipPath id="SVGID_5_">
						<use xlink:href="#SVGID_3_"  style="overflow:visible;"/>
					</clipPath>
					<clipPath id="SVGID_6_" class="st1">
						<use xlink:href="#SVGID_4_"  style="overflow:visible;"/>
					</clipPath>
					<polygon class="st2" points="2,4.1 2,35.9 16.7,35.9 16.7,30.2 8.3,30.2 8.3,22.7 15.5,22.7 15.5,17 8.3,17 8.3,9.8 16.7,9.8 
						16.7,4.1 					"/>
					<g class="st3">
						<g>
							<defs>
								<rect id="SVGID_7_" x="2" y="4.1" width="71" height="31.9"/>
							</defs>
							<defs>
								<rect id="SVGID_8_" x="2" y="4.1" width="71" height="31.9"/>
							</defs>
							<defs>
								<rect id="SVGID_9_" x="2" y="4.1" width="71" height="31.9"/>
							</defs>
							<defs>
								<rect id="SVGID_10_" x="2" y="4.1" width="71" height="31.9"/>
							</defs>
							<defs>
								<rect id="SVGID_11_" x="2" y="4.1" width="71" height="31.9"/>
							</defs>
							<defs>
								<rect id="SVGID_12_" x="2" y="4.1" width="71" height="31.9"/>
							</defs>
							<clipPath id="SVGID_13_">
								<use xlink:href="#SVGID_7_"  style="overflow:visible;"/>
							</clipPath>
							<clipPath id="SVGID_14_" class="st4">
								<use xlink:href="#SVGID_8_"  style="overflow:visible;"/>
							</clipPath>
							<clipPath id="SVGID_15_" class="st5">
								<use xlink:href="#SVGID_9_"  style="overflow:visible;"/>
							</clipPath>
							<clipPath id="SVGID_16_" class="st6">
								<use xlink:href="#SVGID_10_"  style="overflow:visible;"/>
							</clipPath>
							<clipPath id="SVGID_17_" class="st7">
								<use xlink:href="#SVGID_11_"  style="overflow:visible;"/>
							</clipPath>
							<clipPath id="SVGID_18_" class="st8">
								<use xlink:href="#SVGID_12_"  style="overflow:visible;"/>
							</clipPath>
							<path class="st9" d="M64,36c-3.6,0-5.5-1.4-6.9-3.1c-2.5-3-2.4-8.6-2.4-12.8S54.5,10.2,57,7.2c1.5-1.7,3.4-3.1,6.9-3.1
								c2.7,0,4.8,0.9,6.3,2.3c1.7,1.7,2.6,4.1,2.7,7h-6.4c0-1.3-0.3-3.7-2.7-3.7c-1.2,0-1.7,0.5-2.1,1.2C61.1,12.4,61,16.3,61,20
								c0,3.8,0.1,7.7,0.8,9.1c0.4,0.7,0.9,1.2,2.1,1.2c2.1,0,2.7-1.9,2.7-3.6v-3.2H64v-5h9v7.9C73,32.6,69.4,36,64,36"/>
							<polygon class="st10" points="18.1,4.1 27.4,4.1 30.4,11.8 25.8,24.2 							"/>
							<polygon class="st11" points="47.2,4.1 55.9,4.1 51.5,16 							"/>
							<polygon class="st12" points="48.8,23.7 44.3,35.9 37.4,16.2 41.7,4.1 							"/>
							<polygon class="st11" points="33.1,4.1 41.7,4.1 30.3,35.9 25.8,24.2 							"/>
							<g class="st13">
								<g>
									<g>
										<defs>
											<rect id="SVGID_19_" x="18.1" y="4.1" width="12.2" height="20.1"/>
										</defs>
										<clipPath id="SVGID_20_">
											<use xlink:href="#SVGID_19_"  style="overflow:visible;"/>
										</clipPath>
									</g>
								</g>
							</g>
						</g>
					</g>
				</g>
			</g>
		</g>
	</g>
</g>
</svg>
